# xmcd
#
# Track frame offsets:
#	150
#	71492
#	140660
#	212370
#	219682
#
# Disc length: 4439 seconds
#
# Revision: 1
# Processed by: cddbd v1.5.1PL0 Copyright (c) Steve Scherf et al.
# Submitted via: CDex 1.50Beta5
#
DISCID=4c115505
DTITLE=渋さ知らズ - Somthing Difference
DYEAR=1900
DGENRE=Jazz
TTITLE0=くじら
TTITLE1=関東砂化地獄
TTITLE2=KON(根)
TTITLE3=本多工務店資材置場 朝8時
TTITLE4=校庭
EXTD=
EXTT0=
EXTT1=
EXTT2=
EXTT3=
EXTT4=
PLAYORDER=
